<svg height="512pt" viewBox="-41 0 512 512" width="512pt" xmlns="http://www.w3.org/2000/svg"><path d="m293.757812 221.992188c28.195313-22.941407 46.242188-57.894532 46.242188-96.992188 0-68.925781-56.074219-125-125-125s-125 56.074219-125 125c0 39.097656 18.046875 74.050781 46.242188 96.992188-77.027344 12.769531-136.242188 85.488281-136.242188 173.007812v102c0 8.285156 6.714844 15 15 15h400c8.285156 0 15-6.714844 15-15v-102c0-87.519531-59.214844-160.238281-136.242188-173.007812zm-63.757812 28.007812v30h-30v-30zm-32.703125 60h35.40625l15.847656 79.230469-33.550781 28.179687-33.550781-28.179687zm-77.296875-185c0-52.382812 42.617188-95 95-95s95 42.617188 95 95-42.617188 95-95 95-95-42.617188-95-95zm280 357h-370v-87c0-79.953125 58.519531-145 130.453125-145h9.546875v43.515625l-19.707031 98.542969c-1.074219 5.371094.863281 10.902344 5.058593 14.425781l50 42c2.789063 2.34375 6.21875 3.515625 9.648438 3.515625s6.859375-1.171875 9.648438-3.515625l50-42c4.195312-3.523437 6.136718-9.054687 5.0625-14.425781l-19.710938-98.542969v-43.515625h9.546875c71.933594 0 130.453125 65.046875 130.453125 145zm0 0"/></svg>